<svg width="85" height="85" viewBox="0 0 85 85" fill="none" xmlns="http://www.w3.org/2000/svg">
<path d="M77.4067 36.4897C77.7113 38.4518 77.9167 40.4493 77.9167 42.5C77.9167 64.0156 60.474 81.4583 38.9583 81.4583C17.4427 81.4583 0 64.0156 0 42.5C0 20.9843 17.4427 3.54163 38.9583 3.54163C47.2706 3.54163 54.9596 6.166 61.285 10.6002L56.2488 15.7604C51.2621 12.5268 45.3333 10.625 38.9583 10.625C21.3846 10.625 7.08333 24.9262 7.08333 42.5C7.08333 60.0737 21.3846 74.375 38.9583 74.375C56.2913 74.375 70.4048 60.4633 70.7979 43.226L77.4067 36.4897ZM74.035 7.67475L40.7292 41.8129L27.1185 29.0133L16.1571 39.9854L40.7292 63.75L85 18.6398L74.035 7.67475Z" fill="#027C00"/>
</svg>
