<svg width="85" height="85" viewBox="0 0 85 85" fill="none" xmlns="http://www.w3.org/2000/svg">
<g clip-path="url(#clip0)">
<path d="M56.3479 47.2458L65.6837 32.9871L64.0758 31.5492L51.0673 42.5248C48.6767 42.036 46.1019 42.7656 44.3594 44.7135C41.7527 47.6283 42.0042 52.1085 44.9225 54.7152C47.8408 57.3219 52.3175 57.0704 54.9242 54.1521C56.6667 52.2042 57.1023 49.5656 56.3479 47.2458ZM42.5 9.54125V0H56.6667V9.54125C51.5702 8.68062 47.4867 8.69833 42.5 9.54125ZM73.8473 16.8512L78.8304 11.8681L83.8383 16.876L79.1598 21.5546C77.5235 19.8404 75.7456 18.2715 73.8473 16.8512ZM7.08333 31.875H35.4167V38.9583H7.08333V31.875ZM0 46.0417H28.3333V53.125H0V46.0417ZM10.625 60.2083H35.4167V67.2917H10.625V60.2083ZM85 49.5833C85 69.144 69.144 85 49.5833 85C39.7021 85 30.8125 80.9094 24.3985 74.375H36.0152C40.0456 76.6098 44.6533 77.9167 49.5833 77.9167C65.2056 77.9167 77.9167 65.2056 77.9167 49.5833C77.9167 33.961 65.2056 21.25 49.5833 21.25C44.6533 21.25 40.0456 22.5569 36.0152 24.7917H24.3985C30.8125 18.2573 39.7021 14.1667 49.5833 14.1667C69.144 14.1667 85 30.0227 85 49.5833Z" fill="#A7A000" fill-opacity="0.67"/>
</g>
<defs>
<clipPath id="clip0">
<rect width="85" height="85" fill="white"/>
</clipPath>
</defs>
</svg>
