<svg width="85" height="85" viewBox="0 0 85 85" fill="none" xmlns="http://www.w3.org/2000/svg">
<g clip-path="url(#clip0)">
<path d="M39.27 28.5564C39.4896 27.6958 39.6242 27.0477 39.7481 26.4137L35.8523 25.6558L35.4663 27.4266C34.1523 27.2318 32.7498 27.2106 31.3367 27.3522C31.3685 26.4031 31.4252 25.4716 31.5102 24.5756H35.8629V20.8852H32.0308C32.2221 19.9466 32.3815 19.3835 32.5408 18.8487L28.7371 17.7083C28.4573 18.6398 28.2271 19.5535 27.9898 20.8852H23.6513V24.5756H27.5188C27.416 25.7656 27.3558 27.0016 27.3381 28.2518C23.0633 29.8208 21.25 32.8135 21.25 35.5229C21.25 38.7245 23.7788 41.5437 27.7738 41.1825C32.7356 40.7291 36.0506 36.982 37.9915 32.3743C39.9996 33.5325 40.8425 35.4768 40.0846 37.2795C39.3869 38.9477 37.3221 40.5343 33.3838 40.4529V44.4231C37.7542 44.4904 42.0537 42.8293 43.7431 38.8166C45.3865 34.896 43.5058 30.6106 39.27 28.5564ZM34.1488 31.2693C33.529 32.64 32.7144 34.0035 31.6767 35.0766C31.5173 33.9327 31.4075 32.6825 31.3508 31.3437C32.2965 31.2198 33.2527 31.1985 34.1488 31.2693ZM27.4408 32.5514C27.5471 34.2266 27.7383 35.7708 28.0004 37.1485C24.4658 37.7966 24.3242 34.3116 27.4408 32.5514ZM7.08333 33.1216C7.08333 39.7552 10.0902 43.5448 13.044 47.0864C13.1538 50.6281 13.345 52.9939 11.8646 58.3595C18.0554 56.3833 19.0825 55.6041 22.5179 53.4933C26.0596 54.3575 27.7383 54.8427 31.7652 55.2323C31.4323 57.7397 31.4783 59.7479 31.96 62.397C29.2967 62.1845 26.5483 61.7666 23.7079 61.0725C18.7602 64.1077 7.83771 67.1818 0.159375 68.5631C3.03167 62.9141 6.20854 55.1579 6.04208 49.7497C2.17813 45.1279 0 39.1779 0 33.1216C0 16.0295 16.7131 3.54163 35.4167 3.54163C53.9644 3.54163 70.7519 15.8808 70.8262 33.0012C68.5454 32.3814 66.1442 32.0202 63.6685 31.8891C62.8575 20.06 50.5183 10.625 35.4167 10.625C19.7944 10.625 7.08333 20.7187 7.08333 33.1216ZM62.5352 52.3493L65.1029 59.6947H59.9852L62.5352 52.3493ZM85 58.2498C85 47.0652 74.0598 38.8875 61.8163 38.8875C49.6471 38.8875 38.6325 47.0085 38.6325 58.2498C38.6325 68.1664 47.9577 77.5235 61.6463 77.5235C64.1219 77.5235 66.7462 77.2154 69.484 76.5531C72.721 78.54 79.8717 80.5445 84.8973 81.4583C83.0202 77.7572 80.9412 72.6785 81.044 69.1368C83.5727 66.1158 85 62.2164 85 58.2498ZM67.8194 67.2916L66.2044 62.7937H58.9015L57.3042 67.2916H53.125L60.559 47.8125H64.4583L71.864 67.2916H67.8194Z" fill="#930000"/>
</g>
<defs>
<clipPath id="clip0">
<rect width="85" height="85" fill="white"/>
</clipPath>
</defs>
</svg>
