<svg width="85" height="85" viewBox="0 0 85 85" fill="none" xmlns="http://www.w3.org/2000/svg">
<g clip-path="url(#clip0)">
<path d="M75.8129 33.8512C71.5275 33.6706 65.6483 32.8667 61.7277 31.2163C64.5929 19.589 66.1654 0 53.9502 0C47.3592 0 45.6237 5.9075 43.9167 11.7902C38.4342 30.6885 29.9412 35.9302 21.25 38.0021V35.4167H0V77.9167H21.25V74.715C29.6721 75.5225 35.8381 77.775 43.0985 80.8988C47.5504 82.8148 53.9112 85 61.9969 85C70.9856 85 77.2083 81.469 79.7371 71.9454C81.5079 65.2977 85 46.2683 85 42.7267C85 36.89 80.8633 34.0638 75.8129 33.8512ZM14.1667 70.8333H7.08333V42.5H14.1667V70.8333ZM70.465 51.0602C70.465 51.0602 71.1769 51.0956 74.251 50.9646C78.0831 50.8017 77.9733 56.1673 74.2652 56.5002L68.0283 56.8508C65.4287 57.1838 65.705 61.1115 68.5277 61.0017C68.5277 61.0017 70.9573 60.9415 72.5758 60.8565C76.3583 60.6581 76.1742 65.9175 72.7175 66.3496C71.2158 66.5373 66.5373 66.7569 66.5373 66.7569C63.665 67.0119 64.0369 71.1308 66.9233 70.7979L69.654 70.6881C72.5652 70.426 73.2063 73.61 68.6198 76.5708C63.07 79.691 52.0271 77.0348 45.8965 74.3963C37.9667 70.9785 30.1785 67.5467 21.25 67.2917V46.0417C32.81 43.389 43.6617 38.0588 50.7202 13.7665C53.9006 2.81563 56.6667 6.9275 56.6667 15.7994C56.6667 23.1342 54.9313 29.2081 53.4048 35.3954C57.1625 37.3185 65.3438 40.3608 75.0798 40.9062C78.8162 41.1152 78.7065 46.0594 74.8992 46.5163L69.9621 47.1077C69.9621 47.1077 67.8088 51.0425 70.465 51.0602Z" fill="#010048" fill-opacity="0.68"/>
</g>
<defs>
<clipPath id="clip0">
<rect width="85" height="85" fill="white"/>
</clipPath>
</defs>
</svg>
